<svg width="104" height="104" viewBox="0 0 104 104" fill="none" xmlns="http://www.w3.org/2000/svg">
<g filter="url(#filter0_i_10_56)">
<path d="M55.64 69.16L69.16 55.64C70.2 54.6 70.72 53.3867 70.72 52C70.72 50.6133 70.2 49.4 69.16 48.36L55.51 34.71C54.5567 33.7567 53.3659 33.3008 51.9376 33.3424C50.5059 33.3875 49.3133 33.8867 48.36 34.84C47.4067 35.7933 46.93 37.0067 46.93 38.48C46.93 39.9533 47.4067 41.1667 48.36 42.12L53.04 46.8H36.27C34.7967 46.8 33.5833 47.2975 32.63 48.2924C31.6767 49.2908 31.2 50.5267 31.2 52C31.2 53.4733 31.6992 54.7075 32.6976 55.7024C33.6925 56.7008 34.9267 57.2 36.4 57.2H53.04L48.23 62.01C47.2767 62.9633 46.8208 64.1559 46.8624 65.5876C46.9075 67.0159 47.4067 68.2067 48.36 69.16C49.3133 70.1133 50.5267 70.59 52 70.59C53.4733 70.59 54.6867 70.1133 55.64 69.16ZM52 104C44.8067 104 38.0467 102.634 31.72 99.9024C25.3933 97.1741 19.89 93.47 15.21 88.79C10.53 84.11 6.82587 78.6067 4.0976 72.28C1.36587 65.9533 0 59.1933 0 52C0 44.8067 1.36587 38.0467 4.0976 31.72C6.82587 25.3933 10.53 19.89 15.21 15.21C19.89 10.53 25.3933 6.82413 31.72 4.0924C38.0467 1.36413 44.8067 0 52 0C59.1933 0 65.9533 1.36413 72.28 4.0924C78.6067 6.82413 84.11 10.53 88.79 15.21C93.47 19.89 97.1741 25.3933 99.9024 31.72C102.634 38.0467 104 44.8067 104 52C104 59.1933 102.634 65.9533 99.9024 72.28C97.1741 78.6067 93.47 84.11 88.79 88.79C84.11 93.47 78.6067 97.1741 72.28 99.9024C65.9533 102.634 59.1933 104 52 104ZM52 93.6C63.5267 93.6 73.3425 89.5492 81.4476 81.4476C89.5492 73.3425 93.6 63.5267 93.6 52C93.6 40.4733 89.5492 30.6575 81.4476 22.5524C73.3425 14.4508 63.5267 10.4 52 10.4C40.4733 10.4 30.6592 14.4508 22.5576 22.5524C14.4525 30.6575 10.4 40.4733 10.4 52C10.4 63.5267 14.4525 73.3425 22.5576 81.4476C30.6592 89.5492 40.4733 93.6 52 93.6Z" fill="#228D6D"/>
</g>
<defs>
<filter id="filter0_i_10_56" x="0" y="0" width="104" height="108" filterUnits="userSpaceOnUse" color-interpolation-filters="sRGB">
<feFlood flood-opacity="0" result="BackgroundImageFix"/>
<feBlend mode="normal" in="SourceGraphic" in2="BackgroundImageFix" result="shape"/>
<feColorMatrix in="SourceAlpha" type="matrix" values="0 0 0 0 0 0 0 0 0 0 0 0 0 0 0 0 0 0 127 0" result="hardAlpha"/>
<feOffset dy="4"/>
<feGaussianBlur stdDeviation="2"/>
<feComposite in2="hardAlpha" operator="arithmetic" k2="-1" k3="1"/>
<feColorMatrix type="matrix" values="0 0 0 0 0 0 0 0 0 0 0 0 0 0 0 0 0 0 0.25 0"/>
<feBlend mode="normal" in2="shape" result="effect1_innerShadow_10_56"/>
</filter>
</defs>
</svg>
