<svg width="266" height="243" viewBox="0 0 266 243" fill="none" xmlns="http://www.w3.org/2000/svg">
<path d="M143.519 158.8L112.808 128.304L113.171 127.939C134.209 104.368 149.202 77.274 158.028 48.6H193.455V24.3H108.818V0H84.6364V24.3H0V48.6H135.055C126.955 71.928 114.138 94.1625 96.7273 113.603C85.4827 101.088 76.1727 87.3585 68.7973 72.9H44.6155C53.4418 92.7045 65.5327 111.416 80.6464 128.304L19.1036 189.297L36.2727 206.55L96.7273 145.8L134.33 183.587L143.519 158.8ZM211.591 97.2H187.409L133 243H157.182L170.724 206.55H228.155L241.818 243H266L211.591 97.2ZM179.913 182.25L199.5 129.641L219.087 182.25H179.913Z" fill="#228D6D"/>
</svg>
